PathFileType	4	(X/Y/Z)	C:\Users\Graham\Documents\MATLAB\MOtoNMS_v2_2\MyData\ElaboratedData\S9\22-05-17\staticElaborations\Static1\Static1\\Static1.trc
DataRate	CameraRate	NumFrames	NumMarkers	Units	OrigDataRate	DataStartFrame
100	100	5	38	mm	100	2
Frame#	Time	V_Sacral			R_ASIS			L_ASIS			R_Knee_Lat			R_Knee_Med			R_Thigh_Upper			R_Thigh_Front			R_Thigh_Rear			L_Knee_Lat			L_Knee_Med			L_Thigh_Upper			L_Thigh_Front			L_Thigh_Rear			R_Ankle_Lat			R_Ankle_Med			R_Shank_Upper			R_Shank_Front			R_Shank_Rear			L_Ankle_Lat			L_Ankle_Med			L_Shank_Upper			L_Shank_Front			L_Shank_Rear			R_Heel			R_MTP1			R_MTP5			L_Heel			L_MTP1			L_MTP5			Clavicle			R_Acromium			L_Acromium			LAJC			RAJC			LHJC			RHJC			LKJC			RKJC		
		X1	Y1	Z1	X2	Y2	Z2	X3	Y3	Z3	X4	Y4	Z4	X5	Y5	Z5	X6	Y6	Z6	X7	Y7	Z7	X8	Y8	Z8	X9	Y9	Z9	X10	Y10	Z10	X11	Y11	Z11	X12	Y12	Z12	X13	Y13	Z13	X14	Y14	Z14	X15	Y15	Z15	X16	Y16	Z16	X17	Y17	Z17	X18	Y18	Z18	X19	Y19	Z19	X20	Y20	Z20	X21	Y21	Z21	X22	Y22	Z22	X23	Y23	Z23	X24	Y24	Z24	X25	Y25	Z25	X26	Y26	Z26	X27	Y27	Z27	X28	Y28	Z28	X29	Y29	Z29	X30	Y30	Z30	X31	Y31	Z31	X32	Y32	Z32	X33	Y33	Z33	X34	Y34	Z34	X35	Y35	Z35	X36	Y36	Z36	X37	Y37	Z37	X38	Y38	Z38	

111	1.100000	-163.515308	1026.418455	0.652457	12.166613	1000.987434	152.807978	49.672202	1008.143639	-90.324128	-95.500132	497.216981	166.150876	-102.574797	476.205745	52.569484	32.486542	721.820962	133.381887	1.706639	612.234761	90.769064	-1.747436	607.251353	167.885317	-68.334563	497.545397	-149.983681	-82.106817	474.160139	-36.920334	58.998525	719.025336	-87.598983	28.029923	608.435492	-57.419746	31.248448	608.746397	-124.829427	-144.801148	96.099963	146.191708	-126.276859	100.837952	56.115509	-60.373444	340.396097	136.175374	-94.740117	229.563819	77.913238	-98.818377	223.761820	159.607521	-136.771218	89.431342	-152.314248	-126.116432	97.763248	-58.305241	-45.414459	336.672230	-122.329989	-72.197097	221.664817	-75.320510	-84.079858	222.554035	-155.684327	-204.143371	43.350430	113.031683	35.216410	59.440663	78.422522	21.953268	51.107449	161.045554	-201.933850	44.660417	-110.841120	40.028298	55.438413	-69.247338	36.820653	49.370052	-148.894464	31.826916	1406.610296	36.643039	-88.845318	1477.169399	224.591912	-56.981928	1511.350656	-173.443160	-131.443825	93.597295	-105.309744	-135.539003	98.468957	101.153609	-20.887382	929.284552	-68.567399	-47.866000	924.136932	106.323018	-75.220690	485.852768	-93.452008	-99.037465	486.711363	109.360180	
112	1.110000	-163.581203	1026.430726	0.935714	12.747626	1001.100570	152.584907	49.366083	1008.134185	-90.612693	-95.339469	497.198472	166.189468	-102.552853	476.206499	52.609004	32.725729	721.766265	133.152462	1.805913	612.183281	90.611791	-1.501544	607.201672	167.733413	-68.691338	497.583455	-150.079837	-82.361689	474.174895	-36.944521	58.697857	719.029259	-87.878481	27.795473	608.462570	-57.631846	30.878225	608.752968	-125.047942	-144.787575	96.099369	146.201364	-126.276574	100.842644	56.119941	-60.300032	340.377146	136.176774	-94.723478	229.562872	77.922606	-98.739220	223.757216	159.610837	-136.792804	89.417851	-152.315103	-126.125009	97.759660	-58.311440	-45.634942	336.732773	-122.386803	-72.303133	221.704605	-75.381503	-84.235879	222.581433	-155.709615	-204.141317	43.353989	113.032387	35.217637	59.437143	78.418229	21.954356	51.106363	161.042182	-201.935881	44.654162	-110.840361	40.024869	55.441932	-69.252642	36.820592	49.370243	-148.901726	31.870066	1406.655941	36.164244	-88.210724	1477.307569	224.501418	-57.674747	1511.234095	-173.716609	-131.458907	93.588756	-105.313272	-135.532074	98.471007	101.160652	-21.121094	929.297128	-68.575889	-47.462216	924.237567	106.365886	-75.526514	485.879175	-93.512179	-98.946161	486.702486	109.399236	
113	1.120000	-163.643910	1026.440170	1.221321	13.338913	1001.217595	152.360740	49.061450	1008.126111	-90.900059	-95.173297	497.179217	166.227120	-102.524692	476.206798	52.648280	32.972344	721.711854	132.922532	1.908833	612.132467	90.451902	-1.247825	607.154156	167.580580	-69.051064	497.618625	-150.159347	-82.619084	474.190992	-36.970760	58.396138	719.031980	-88.149821	27.551340	608.482324	-57.838866	30.506690	608.758264	-125.261407	-144.773167	96.098714	146.212099	-126.276050	100.847549	56.124075	-60.219097	340.358394	136.176702	-94.705331	229.560868	77.930970	-98.657643	223.750200	159.615438	-136.814941	89.404034	-152.316000	-126.135320	97.756017	-58.317917	-45.857579	336.793332	-122.444435	-72.422308	221.741825	-75.430632	-84.394541	222.608297	-155.734372	-204.139956	43.357339	113.033397	35.218903	59.433378	78.413490	21.955303	51.105082	161.037988	-201.937781	44.647697	-110.839314	40.021325	55.445765	-69.258050	36.820029	49.370653	-148.909062	31.902345	1406.702275	35.690460	-87.602762	1477.434758	224.409413	-58.362889	1511.121136	-173.984677	-131.475130	93.580026	-105.316959	-135.524609	98.473131	101.168087	-21.350049	929.309683	-68.579980	-47.047329	924.339989	106.411528	-75.835074	485.904809	-93.565053	-98.848995	486.693008	109.437700	
114	1.130000	-163.704354	1026.447481	1.506659	13.930084	1001.334349	152.137526	48.759838	1008.119323	-91.184545	-95.004435	497.159663	166.262853	-102.490531	476.206813	52.686529	33.223977	721.658328	132.694388	2.014794	612.083195	90.290826	-0.988776	607.109644	167.428505	-69.409569	497.650168	-150.219559	-82.874702	474.208196	-36.998860	58.095695	719.034340	-88.410480	27.298454	608.494182	-58.039170	30.137536	608.762692	-125.468074	-144.758597	96.098223	146.223831	-126.275350	100.852648	56.127954	-60.132039	340.340299	136.174990	-94.685827	229.558103	77.938510	-98.574981	223.740995	159.621315	-136.837385	89.389966	-152.316984	-126.147240	97.752152	-58.324478	-46.079356	336.852860	-122.501814	-72.547145	221.775365	-75.468255	-84.553487	222.633921	-155.757925	-204.139436	43.360403	113.034958	35.220287	59.429354	78.408448	21.956171	51.103619	161.032941	-201.939435	44.641066	-110.838117	40.017664	55.449986	-69.263505	36.818977	49.371265	-148.916373	31.925381	1406.749274	35.223600	-87.021669	1477.552217	224.316103	-59.040093	1511.014454	-174.246622	-131.492313	93.571059	-105.320731	-135.516973	98.475435	101.175892	-21.574380	929.321925	-68.582359	-46.630025	924.440987	106.457389	-76.142135	485.929182	-93.609210	-98.747483	486.683238	109.474691	
115	1.140000	-163.763472	1026.453399	1.789184	14.513030	1001.448245	151.916956	48.462820	1008.113759	-91.464456	-94.835354	497.140302	166.295911	-102.450971	476.206735	52.723011	33.478036	721.606339	132.469983	2.123359	612.036335	90.130107	-0.727127	607.068630	167.278927	-69.762583	497.677792	-150.260385	-83.124422	474.226215	-37.028552	57.798936	719.037137	-88.658752	27.039014	608.498588	-58.231250	29.774505	608.766687	-125.666702	-144.744529	96.098060	146.236318	-126.274516	100.857899	56.131640	-60.040616	340.323221	136.171596	-94.665078	229.554948	77.945477	-98.492430	223.730038	159.628241	-136.859852	89.375747	-152.318092	-126.160418	97.747941	-58.330927	-46.297356	336.910360	-122.557804	-72.671310	221.804596	-75.495591	-84.710139	222.657731	-155.779846	-204.139807	43.363159	113.037262	35.221863	59.425075	78.403275	21.957073	51.102029	161.027140	-201.940780	44.634361	-110.836929	40.013908	55.454617	-69.268911	36.817502	49.372052	-148.923551	31.940739	1406.796811	34.765469	-86.467196	1477.661539	224.221677	-59.700649	1510.916301	-174.502068	-131.510135	93.561844	-105.324509	-135.509522	98.477980	101.183979	-21.793929	929.333787	-68.584718	-46.217104	924.538676	106.501694	-76.443502	485.952004	-93.644468	-98.643163	486.673518	109.509461	
